<svg xmlns="http://www.w3.org/2000/svg" viewBox="0 0 70.3 70.3"><path class="st0" fill="#FFF" d="M0 0h70.3v70.3H0z"/><g><path fill="#DA205E" class="st1" d="M63.6 13.3l.8 2.5-35.6 37.9s-13.3-5-18.3-14.6l-1.7-5.4s5.1 9.4 17.9 13.2l36.9-33.6z"/><path fill="#EE9226" class="st2" d="M66.2 21.4l.9 2.7-34.4 41.6S19.2 59 14.4 51.2L13.1 47s5 7.7 17.5 12.2l35.6-37.8z"/><path fill="#3FB18A" class="st3" d="M3.6 17.9c6.1 18.7 21 23 21 23L61.8 7.8 3.6 17.9zm19 16.3S12.6 31 7.1 20.1L57.4 9.9 22.6 34.2z"/></g></svg>